<svg width="186" height="58" viewBox="0 0 186 58" fill="none" xmlns="http://www.w3.org/2000/svg">
<path d="M43.5509 12.3698L36.7674 2.57092C36.2646 1.84618 35.5964 1.25169 34.8181 0.836713C34.0397 0.421735 33.1737 0.198218 32.2917 0.184684L19.4184 0H19.3919C12.7456 0 7.64628 1.11168 4.36201 6.53713C1.30433 11.5873 0 20.19 0 35.3018V37.1487H4.21969L1.50333 51H5.26743L7.98379 37.1487H9.23422C12.2505 37.1756 15.1564 36.015 17.3243 33.9176C19.2842 32.0424 20.6978 29.4769 21.4126 26.4986L21.4191 26.4718L24.5868 11.2929H20.8135L17.8148 25.6622C16.9015 29.4344 14.1706 33.455 9.23422 33.455H3.70061C3.80092 20.381 4.99133 12.6296 7.52185 8.44942C9.64572 4.94042 12.7501 3.69484 19.379 3.69311L32.2386 3.87779C32.5326 3.88227 32.8213 3.95676 33.0808 4.09509C33.3402 4.23342 33.563 4.4316 33.7305 4.67321L41.4039 15.7565L51.7116 17.4745V19.432L49.9927 28.5994C49.4854 31.3051 48.6182 32.6681 45.0618 33.0953L30.4826 35.5896L30.3862 51H34.0799L34.1569 38.7078L45.5496 36.757C48.1306 36.4397 50.0348 35.6079 51.3702 34.215C52.5118 33.024 53.2065 31.5024 53.6232 29.2802L55.4053 19.7753V14.3455L43.5509 12.3698Z" fill="#FB8B24"/>
<path d="M56.5062 47.527C57.3034 47.527 58.0058 47.4131 58.6132 47.1853C59.2396 46.9386 59.8185 46.5589 60.35 46.0464L62.7132 48.6089C61.2706 50.2603 59.1636 51.086 56.3923 51.086C54.665 51.086 53.137 50.7539 51.8083 50.0895C50.4796 49.4062 49.4545 48.4666 48.7332 47.2707C48.0119 46.0749 47.6513 44.7177 47.6513 43.1992C47.6513 41.6996 48.0025 40.3519 48.7048 39.1561C49.4261 37.9413 50.4036 37.0017 51.6374 36.3373C52.8902 35.654 54.2949 35.3123 55.8514 35.3123C57.3129 35.3123 58.6417 35.6255 59.8375 36.2519C61.0333 36.8593 61.9824 37.7515 62.6847 38.9283C63.406 40.0862 63.7667 41.4624 63.7667 43.0568L52.4347 45.2492C52.7573 46.0085 53.2604 46.5779 53.9437 46.9575C54.646 47.3372 55.5002 47.527 56.5062 47.527ZM55.8514 38.6721C54.7314 38.6721 53.8203 39.0327 53.118 39.754C52.4157 40.4753 52.0455 41.4719 52.0076 42.7436L59.4674 41.2915C59.2586 40.4943 58.8315 39.8584 58.1861 39.3839C57.5407 38.9093 56.7625 38.6721 55.8514 38.6721ZM75.9774 50.118C75.5408 50.4407 74.9998 50.6874 74.3544 50.8583C73.728 51.0101 73.0732 51.086 72.3898 51.086C70.5486 51.086 69.1345 50.621 68.1474 49.6909C67.1604 48.7608 66.6669 47.3941 66.6669 45.5909V32.1519H71.1086V35.8818H74.8954V39.2985H71.1086V45.5339C71.1086 46.1793 71.2699 46.6823 71.5926 47.043C71.9153 47.3846 72.3803 47.5555 72.9878 47.5555C73.6711 47.5555 74.2785 47.3656 74.81 46.986L75.9774 50.118Z" fill="#FB8B24"/>
<path d="M89.7961 50.1639C88.321 50.1639 87.0007 49.8452 85.8351 49.2078C84.6878 48.5704 83.7863 47.6963 83.1307 46.5854C82.4751 45.4563 82.1473 44.1815 82.1473 42.761C82.1473 41.3405 82.4751 40.0748 83.1307 38.9639C83.7863 37.8348 84.6878 36.9606 85.8351 36.3415C87.0007 35.7041 88.321 35.3854 89.7961 35.3854C91.1073 35.3854 92.2728 35.6494 93.2927 36.1776C94.3307 36.7057 95.132 37.4706 95.6966 38.4722L93.7024 39.7561C93.2472 39.0641 92.6826 38.545 92.0088 38.199C91.335 37.853 90.5883 37.68 89.7688 37.68C88.8218 37.68 87.9659 37.8894 87.201 38.3083C86.4543 38.7272 85.8624 39.3281 85.4254 40.1112C85.0065 40.8761 84.7971 41.7593 84.7971 42.761C84.7971 43.7808 85.0065 44.6823 85.4254 45.4654C85.8624 46.2302 86.4543 46.8221 87.201 47.241C87.9659 47.6598 88.8218 47.8693 89.7688 47.8693C90.5883 47.8693 91.335 47.6963 92.0088 47.3502C92.6826 47.0042 93.2472 46.4852 93.7024 45.7932L95.6966 47.0498C95.132 48.0514 94.3307 48.8254 93.2927 49.3717C92.2728 49.8998 91.1073 50.1639 89.7961 50.1639ZM106.172 50.1639C104.733 50.1639 103.44 49.8452 102.293 49.2078C101.146 48.5704 100.244 47.6963 99.5886 46.5854C98.9512 45.4563 98.6325 44.1815 98.6325 42.761C98.6325 41.3405 98.9512 40.0748 99.5886 38.9639C100.244 37.8348 101.146 36.9606 102.293 36.3415C103.44 35.7041 104.733 35.3854 106.172 35.3854C107.611 35.3854 108.895 35.7041 110.024 36.3415C111.171 36.9606 112.063 37.8348 112.701 38.9639C113.356 40.0748 113.684 41.3405 113.684 42.761C113.684 44.1815 113.356 45.4563 112.701 46.5854C112.063 47.6963 111.171 48.5704 110.024 49.2078C108.895 49.8452 107.611 50.1639 106.172 50.1639ZM106.172 47.8693C107.101 47.8693 107.929 47.6598 108.658 47.241C109.405 46.8039 109.987 46.2029 110.406 45.438C110.825 44.655 111.034 43.7626 111.034 42.761C111.034 41.7593 110.825 40.8761 110.406 40.1112C109.987 39.3281 109.405 38.7272 108.658 38.3083C107.929 37.8894 107.101 37.68 106.172 37.68C105.243 37.68 104.406 37.8894 103.659 38.3083C102.93 38.7272 102.348 39.3281 101.911 40.1112C101.492 40.8761 101.282 41.7593 101.282 42.761C101.282 43.7626 101.492 44.655 101.911 45.438C102.348 46.2029 102.93 46.8039 103.659 47.241C104.406 47.6598 105.243 47.8693 106.172 47.8693ZM120.917 37.9532C121.372 37.1154 122.046 36.478 122.938 36.041C123.831 35.6039 124.914 35.3854 126.189 35.3854V37.9259C126.043 37.9076 125.843 37.8985 125.588 37.8985C124.168 37.8985 123.048 38.3265 122.228 39.1824C121.427 40.0202 121.026 41.2221 121.026 42.7883V50H118.404V35.522H120.917V37.9532ZM138.245 35.3854C140.084 35.3854 141.541 35.9226 142.615 36.9971C143.708 38.0533 144.254 39.6104 144.254 41.6683V50H141.632V41.9688C141.632 40.5665 141.295 39.5102 140.621 38.8C139.947 38.0898 138.982 37.7346 137.726 37.7346C136.305 37.7346 135.185 38.1535 134.366 38.9912C133.546 39.8107 133.136 40.9945 133.136 42.5424V50H130.514V35.522H133.027V37.7073C133.555 36.9606 134.265 36.387 135.158 35.9863C136.068 35.5857 137.097 35.3854 138.245 35.3854ZM156.809 47.8693C158.539 47.8693 159.932 47.2865 160.989 46.121L162.409 47.8146C161.772 48.5795 160.961 49.1623 159.978 49.5629C159.013 49.9636 157.929 50.1639 156.727 50.1639C155.197 50.1639 153.841 49.8543 152.657 49.2351C151.473 48.5977 150.554 47.7145 149.898 46.5854C149.261 45.4563 148.942 44.1815 148.942 42.761C148.942 41.3587 149.251 40.093 149.871 38.9639C150.508 37.8348 151.373 36.9606 152.466 36.3415C153.577 35.7041 154.824 35.3854 156.208 35.3854C157.519 35.3854 158.712 35.6859 159.787 36.2868C160.861 36.8696 161.717 37.6982 162.355 38.7727C162.992 39.8472 163.32 41.0855 163.338 42.4878L151.837 44.7278C152.202 45.7294 152.812 46.5034 153.668 47.0498C154.542 47.5961 155.589 47.8693 156.809 47.8693ZM156.208 37.598C155.298 37.598 154.478 37.8075 153.75 38.2263C153.039 38.6452 152.484 39.2371 152.083 40.002C151.683 40.7486 151.482 41.6228 151.482 42.6244V42.8976L160.743 41.1493C160.506 40.093 159.978 39.2371 159.158 38.5815C158.339 37.9259 157.355 37.598 156.208 37.598ZM170.613 37.9532C171.068 37.1154 171.742 36.478 172.634 36.041C173.526 35.6039 174.61 35.3854 175.885 35.3854V37.9259C175.739 37.9076 175.539 37.8985 175.284 37.8985C173.863 37.8985 172.743 38.3265 171.924 39.1824C171.123 40.0202 170.722 41.2221 170.722 42.7883V50H168.099V35.522H170.613V37.9532Z" fill="white"/>
</svg>
